<?xml version="1.0" standalone="no"?>
<!DOCTYPE svg PUBLIC "-//W3C//DTD SVG 20010904//EN"
 "http://www.w3.org/TR/2001/REC-SVG-20010904/DTD/svg10.dtd">
<svg version="1.0" xmlns="http://www.w3.org/2000/svg"
 width="760.000000pt" height="434.000000pt" viewBox="0 0 760.000000 434.000000"
 preserveAspectRatio="xMidYMid meet">
<metadata>
Created by potrace 1.14, written by Peter Selinger 2001-2017
</metadata>
<g transform="translate(0.000000,434.000000) scale(0.100000,-0.100000)"
fill="#000000" stroke="none">
<path d="M1798 3746 c-18 -14 -20 -88 -2 -106 7 -7 41 -10 92 -8 44 2 78 0 75
-4 -2 -5 -11 -8 -19 -8 -11 0 -14 -19 -14 -95 0 -93 0 -95 24 -95 29 0 34 22
31 125 -2 59 0 75 11 75 10 0 14 14 14 53 0 40 -4 55 -19 64 -25 15 -171 15
-193 -1z"/>
<path d="M1103 3290 c2 -42 11 -50 55 -50 40 0 275 -58 282 -70 7 -11 484
-130 544 -135 28 -3 330 -74 671 -159 391 -97 650 -156 700 -161 48 -4 254
-50 520 -116 422 -105 447 -110 602 -121 135 -9 198 -8 380 6 120 9 259 25
308 35 50 10 94 15 99 11 58 -55 -326 -110 -669 -96 -180 7 -257 18 -462 70
-78 20 -147 36 -152 36 -6 0 -11 -12 -11 -26 0 -19 -4 -24 -17 -20 -10 2 -33
7 -50 11 -28 6 -33 11 -33 35 0 33 19 26 -250 94 -162 41 -220 51 -372 61 -31
2 -143 26 -250 54 -106 27 -310 80 -453 116 -143 36 -312 80 -375 97 -63 17
-146 34 -185 38 -38 4 -144 28 -235 53 -91 25 -196 53 -235 62 -38 10 -72 21
-75 26 -5 8 -229 69 -251 69 -6 0 -9 -10 -7 -22 3 -20 18 -27 128 -57 69 -18
127 -37 130 -42 5 -8 439 -131 472 -134 10 -1 21 -4 24 -8 4 -4 24 -7 45 -7
21 0 138 -27 261 -61 770 -208 964 -262 975 -271 6 -5 150 -47 320 -94 169
-46 391 -107 493 -135 102 -28 187 -53 190 -55 2 -3 -9 -15 -25 -28 l-29 -23
59 -17 c51 -16 99 -17 389 -14 246 3 358 9 436 21 58 10 198 28 312 41 205 23
208 24 284 65 59 32 79 39 90 30 22 -18 17 -25 -31 -56 -50 -31 -58 -53 -20
-53 41 0 29 -15 -50 -65 l-76 -47 16 -25 c9 -14 44 -69 76 -124 33 -54 64
-101 70 -104 5 -4 9 -14 9 -24 0 -10 18 -32 40 -50 22 -17 40 -36 40 -40 0
-15 71 -81 89 -82 12 0 13 -2 2 -6 -10 -4 -4 -11 20 -23 19 -9 33 -21 32 -27
-2 -7 10 -11 27 -11 24 1 28 4 19 15 -20 23 0 28 23 5 17 -16 19 -22 8 -22 -8
0 -1 -9 15 -20 17 -11 36 -20 43 -20 16 0 102 -60 102 -71 0 -4 -12 -10 -27
-12 -26 -4 -26 -4 5 -6 18 0 32 4 32 10 0 7 10 5 25 -5 l25 -16 0 75 c0 63 -3
77 -17 82 -15 6 -14 8 7 13 14 4 27 3 30 -1 3 -4 3 -45 0 -90 l-5 -84 35 -33
c19 -18 47 -35 63 -39 15 -3 27 -12 27 -19 0 -9 12 -14 34 -14 19 0 38 -5 41
-10 3 -5 2 -10 -3 -10 -24 0 6 -60 54 -112 30 -31 54 -61 54 -66 0 -43 -106
-50 -348 -22 -106 12 -198 19 -205 17 -7 -3 -1 -6 13 -6 14 -1 45 -8 70 -16
l45 -15 -53 3 c-29 2 -55 0 -58 -4 -5 -8 46 -24 101 -32 18 -2 9 -5 -23 -6
-56 -1 -66 -21 -11 -21 17 0 28 -3 26 -8 -3 -4 9 -7 25 -7 17 0 33 -6 35 -12
3 -9 -8 -13 -36 -13 -23 0 -41 -4 -41 -8 0 -9 -87 -48 -240 -108 -221 -86
-330 -152 -330 -200 0 -20 -5 -19 -158 25 -248 72 -405 112 -416 107 -7 -3 -7
-5 1 -5 7 -1 36 -12 65 -25 29 -13 82 -34 117 -46 105 -35 141 -57 141 -85 0
-30 -11 -32 -35 -5 -10 11 -21 17 -25 15 -4 -3 -18 4 -31 14 -13 10 -37 21
-54 24 -16 3 -67 14 -112 25 -47 11 -84 15 -86 9 -1 -5 -21 -4 -47 4 -25 7
-52 13 -60 14 -8 0 -21 4 -29 9 -10 6 -16 6 -19 -2 -2 -7 -12 -12 -22 -12 -10
0 -20 -6 -23 -13 -3 -9 -11 -8 -34 4 -25 14 -38 14 -89 4 -47 -9 -69 -9 -110
2 -35 9 -66 10 -97 4 -26 -4 -59 -6 -74 -4 -15 3 -74 6 -131 8 -103 3 -190 24
-212 49 -7 10 -40 14 -103 15 -109 2 -156 9 -177 27 -8 7 -38 18 -65 25 -28 6
-57 15 -66 19 -17 9 -107 28 -154 33 -96 11 -241 63 -207 75 14 4 16 32 3 32
-6 0 -13 -4 -16 -10 -3 -5 -12 -10 -18 -10 -7 1 -2 9 11 20 25 21 15 34 -21
26 -12 -3 -16 -3 -9 0 17 8 15 24 -4 24 -8 0 -23 7 -31 16 -11 11 -27 14 -49
11 -22 -4 -37 -1 -45 9 -10 12 -9 13 5 8 9 -3 16 -2 16 3 0 20 -48 50 -91 57
-158 25 -190 32 -184 38 4 4 14 5 23 2 10 -3 7 1 -5 7 -28 15 -30 29 -3 29 11
0 20 5 20 10 0 13 -37 13 -45 -1 -4 -6 -13 -8 -21 -5 -8 3 -14 0 -14 -6 0 -9
-3 -9 -12 0 -7 7 -19 12 -29 12 -9 0 -27 11 -40 24 -13 13 -33 26 -45 30 -11
3 -27 17 -34 31 -7 13 -17 22 -23 18 -5 -3 -3 -9 4 -14 10 -6 10 -9 2 -9 -7 0
-20 9 -30 19 -17 19 -120 44 -136 34 -4 -3 -13 9 -20 26 -8 22 -18 31 -32 30
-48 -3 -75 2 -75 15 0 7 -14 17 -32 22 -34 10 -50 34 -23 34 15 0 15 2 1 15
-8 8 -24 15 -35 15 -24 0 -37 16 -19 23 7 3 -24 6 -69 6 -45 1 -85 6 -88 11
-3 6 -15 10 -26 10 -10 0 -19 5 -19 10 0 6 -7 10 -15 10 -26 0 -83 33 -79 45
3 8 -9 15 -35 19 -22 3 -46 12 -53 19 -15 14 -73 37 -103 42 -30 4 -31 5 -15
15 13 8 13 10 -2 11 -10 1 -22 3 -28 4 -5 1 -15 3 -21 4 -6 0 -9 8 -5 16 3 10
-1 15 -12 15 -15 0 -15 2 -2 10 8 5 11 10 6 10 -5 0 -3 6 3 14 9 11 3 16 -33
25 -25 6 -58 11 -75 11 -29 0 -49 14 -34 23 5 2 2 2 -5 0 -19 -4 -62 8 -62 17
0 5 8 11 18 13 9 3 1 5 -18 6 -27 1 -31 4 -20 11 12 8 11 10 -7 10 -12 0 -25
5 -28 10 -3 6 1 10 9 10 9 0 16 7 16 15 0 13 -4 14 -21 4 -16 -8 -23 -8 -29 1
-5 8 -22 11 -46 8 -25 -3 -64 3 -109 18 -38 13 -71 24 -73 24 -2 0 0 5 3 10 3
6 -4 10 -17 11 -22 0 -22 1 -3 9 19 7 18 9 -8 19 -16 6 -38 11 -50 11 -32 0
-67 11 -63 19 3 4 -15 13 -40 20 -40 12 -43 15 -27 27 17 12 16 13 -9 14 -16
0 -28 5 -28 10 0 6 -12 10 -27 11 l-28 0 25 10 c36 15 8 29 -57 29 -40 0 -53
4 -53 15 0 8 14 17 35 21 71 13 23 33 -84 35 -40 0 -50 3 -36 9 18 8 17 9 -7
9 -32 1 -39 21 -7 21 11 0 17 5 14 10 -3 6 -32 10 -64 10 -50 0 -59 3 -57 17
0 12 -7 19 -21 21 -13 2 -23 9 -23 17 0 17 -55 45 -89 45 -20 0 -23 2 -11 10
8 5 28 10 45 10 22 0 26 3 17 12 -9 9 -20 9 -49 0 -24 -7 -39 -8 -41 -2 -2 6
-10 10 -17 10 -8 0 -16 4 -19 9 -4 5 13 8 36 5 l43 -3 -37 11 c-21 6 -38 17
-38 23 0 8 -31 14 -86 19 -102 8 -152 27 -59 23 33 -2 70 0 82 4 12 5 25 4 27
0 3 -5 41 -9 83 -9 43 0 83 -1 88 -2 6 -1 15 -3 20 -5 6 -1 21 -3 35 -4 22 -1
23 -3 8 -12 -10 -5 -33 -10 -52 -11 -20 -1 -33 -5 -29 -11 3 -5 27 -6 55 -3
38 5 54 3 67 -8 12 -11 42 -17 89 -18 40 -2 72 -7 72 -11 0 -5 -30 -8 -67 -7
-94 2 -105 1 -99 -8 3 -5 42 -9 87 -10 45 -1 87 -6 93 -12 5 -5 22 -10 37 -10
15 0 31 -4 34 -10 3 -5 -3 -10 -15 -10 -30 0 -15 -18 23 -29 l32 -9 -35 -2
c-32 -2 -33 -3 -10 -10 14 -4 40 -8 58 -9 18 -1 31 -5 28 -10 -6 -9 40 -21 79
-21 13 0 25 -7 29 -15 3 -8 12 -15 21 -15 8 0 15 -4 15 -9 0 -4 12 -6 26 -3
19 3 25 1 20 -7 -5 -7 5 -11 31 -12 l38 -1 -37 -10 c-21 -6 -38 -14 -38 -20 0
-5 8 -7 18 -4 27 8 97 -9 94 -23 -1 -6 3 -11 10 -10 28 3 49 -1 43 -10 -3 -5
3 -12 12 -14 10 -3 2 -5 -17 -6 -47 -2 -77 -21 -33 -21 17 0 35 -4 38 -10 3
-6 -1 -7 -12 -4 -11 3 -10 0 5 -8 15 -10 40 -12 83 -8 33 3 63 2 65 -2 10 -16
-28 -21 -117 -16 -49 3 -89 2 -89 -3 0 -5 12 -9 28 -9 60 0 242 -35 238 -46
-3 -7 19 -16 57 -24 60 -12 61 -12 37 -26 l-25 -13 27 -1 c15 0 29 -4 32 -8 3
-5 31 -14 63 -21 32 -7 70 -17 86 -22 27 -8 32 -3 21 25 -3 8 -12 12 -21 9
-10 -4 -14 -2 -10 4 4 6 1 13 -5 16 -7 3 -3 4 10 4 12 -1 22 -5 22 -10 0 -5 6
-7 14 -4 8 3 22 -1 33 -8 17 -13 17 -14 1 -15 -10 0 -18 5 -18 12 0 6 -3 9 -6
6 -3 -3 0 -15 7 -26 9 -15 21 -20 41 -17 15 2 31 -1 34 -6 3 -6 12 -8 19 -5 8
3 15 0 17 -5 2 -5 14 -10 28 -11 14 -1 31 -6 38 -11 9 -7 11 -5 6 8 -6 15 -4
16 15 6 12 -7 18 -17 15 -23 -4 -6 -3 -9 2 -5 15 9 79 -9 77 -21 -2 -6 3 -9
10 -7 6 3 26 -4 42 -15 17 -12 24 -20 15 -20 -10 0 -15 -9 -15 -25 2 -31 14
-44 45 -50 13 -2 26 -8 29 -12 3 -5 16 -8 29 -9 67 -2 83 -5 77 -14 -8 -13 49
-37 107 -46 62 -9 126 -31 178 -62 25 -15 58 -34 73 -42 26 -13 27 -15 11 -27
-16 -11 -12 -13 29 -13 45 0 117 -22 117 -35 0 -3 -9 -1 -21 6 -15 8 -24 8
-32 0 -8 -8 -5 -11 10 -11 12 0 24 -4 27 -9 3 -4 27 -14 53 -21 27 -7 57 -18
68 -24 11 -6 25 -11 30 -12 6 0 26 -7 45 -16 19 -8 57 -23 83 -33 29 -11 43
-21 36 -25 -8 -6 -5 -12 11 -20 18 -10 24 -9 31 1 5 9 9 10 9 3 0 -7 17 -15
38 -18 58 -11 91 -26 85 -42 -6 -16 37 -29 68 -21 17 5 20 2 16 -14 -3 -12 0
-19 9 -19 8 0 14 5 14 10 0 12 41 6 82 -11 37 -15 36 -29 -2 -29 -43 0 -37
-16 6 -18 20 -1 45 -4 54 -7 10 -3 21 -1 25 5 6 9 -16 15 -40 10 -7 -1 -7 2 0
9 12 12 114 -18 114 -34 0 -5 12 -11 26 -13 15 -2 23 -8 19 -14 -5 -7 -2 -8 7
-3 20 13 49 10 91 -9 21 -9 48 -17 60 -17 17 -1 18 -2 6 -6 -10 -2 -18 -9 -18
-15 0 -10 17 -8 53 7 12 5 17 3 17 -8 0 -17 27 -31 32 -16 2 6 30 3 73 -10 63
-17 66 -19 30 -19 -22 1 -50 5 -62 9 -15 6 -23 5 -23 -2 0 -6 9 -13 19 -16 12
-3 17 -11 14 -19 -6 -17 15 -18 54 -2 15 6 39 10 52 9 18 -2 22 1 18 14 -4 9
-3 14 3 10 6 -3 10 -12 10 -18 0 -7 15 -18 33 -26 31 -12 31 -13 10 -23 -17
-8 -27 -6 -49 11 -36 29 -66 28 -62 -1 2 -14 11 -24 23 -26 11 -2 29 -7 40
-11 11 -5 33 -14 49 -20 33 -14 237 -51 279 -51 15 0 27 4 27 9 0 10 -31 23
-46 20 -5 -1 -20 3 -34 9 l-25 11 26 0 c14 1 41 -4 60 -10 19 -6 41 -13 49
-15 11 -4 12 -7 2 -13 -7 -4 24 -8 69 -10 45 -1 86 -4 90 -7 5 -3 21 -7 36 -9
76 -10 171 -25 193 -31 18 -4 21 -3 10 4 -8 5 -109 35 -225 67 -115 31 -262
72 -325 90 -63 18 -140 40 -170 48 -109 29 -488 146 -615 190 -327 113 -465
174 -1065 470 -846 418 -1478 735 -1507 755 -16 10 -41 24 -58 29 -16 5 -30
16 -30 24 -1 30 -34 60 -89 79 -31 10 -62 23 -69 27 -6 4 -22 6 -34 4 -13 -1
-23 2 -23 7 0 11 -72 42 -99 42 -10 0 -26 9 -36 20 -10 12 -24 19 -31 16 -15
-6 -74 15 -74 26 0 4 4 8 9 8 5 0 9 14 9 30 -1 17 -5 30 -10 30 -5 0 -17 7
-25 16 -12 12 -18 13 -24 3 -6 -10 -11 -10 -23 0 -13 11 -19 11 -31 1 -10 -9
-15 -9 -15 -1 0 6 5 11 10 11 21 0 9 30 -15 36 -25 6 -25 7 -8 27 20 22 2 16
-29 -11 -10 -9 -18 -10 -18 -4 0 6 -18 10 -45 8 -24 -1 -42 1 -39 6 3 4 -6 8
-20 8 -14 0 -26 5 -26 10 0 7 -7 7 -21 0 -11 -6 -30 -11 -42 -10 -45 4 -47 2
-47 -59 0 -43 4 -60 15 -65 8 -3 15 -1 15 3 0 5 -6 12 -12 14 -8 3 -7 6 4 6 9
1 20 -4 23 -9 4 -6 11 -8 16 -5 5 4 9 -4 9 -16 0 -18 -2 -19 -15 -9 -13 10
-19 10 -35 -5 -19 -17 -17 -49 4 -42 6 2 28 -4 48 -14 47 -24 64 -24 94 0 23
18 18 41 -6 26 -5 -3 -17 -2 -27 3 -11 6 -25 6 -39 0 -15 -7 -28 -7 -40 1 -18
10 -18 10 3 11 12 0 25 5 28 10 4 6 10 8 15 5 5 -3 28 -9 52 -14 89 -19 152
-41 160 -56 5 -9 23 -15 43 -15 19 0 37 -5 41 -11 8 -14 -75 -6 -85 8 -8 13
-79 24 -85 14 -3 -4 -18 -6 -35 -5 -17 1 -36 -5 -43 -13 -10 -12 -9 -14 3 -13
36 6 40 -3 4 -10 -27 -6 -49 -4 -67 5 -15 7 -37 11 -48 8 -11 -3 -20 -1 -20 5
0 14 36 25 52 16 10 -5 10 -4 1 6 -7 7 -26 14 -43 14 l-30 1 0 -1387 0 -1388
3800 0 3800 0 0 1434 0 1434 -60 0 c-36 0 -58 -4 -54 -10 3 -5 12 -7 20 -4 8
3 14 1 14 -3 0 -5 -16 -9 -35 -8 -27 1 -32 4 -23 14 7 9 7 13 -1 13 -7 0 -24
11 -38 24 -21 20 -24 28 -15 39 10 12 5 16 -29 21 -41 7 -72 -5 -51 -18 6 -3
13 -2 16 3 11 18 41 -1 58 -36 16 -34 15 -63 -3 -63 -12 0 -11 17 1 25 8 5 7
11 -1 21 -13 16 -33 19 -24 4 3 -5 -1 -10 -10 -10 -8 0 -20 10 -25 23 -5 12
-9 17 -9 11 -1 -13 -37 -25 -46 -15 -11 11 -29 8 -56 -10 -15 -11 -30 -14 -39
-9 -10 6 -9 9 6 13 10 2 -11 5 -47 6 -52 1 -69 -3 -82 -17 -11 -12 -30 -18
-54 -17 -21 0 -45 -6 -55 -14 -16 -14 -16 -16 3 -32 17 -14 24 -15 34 -6 7 7
10 16 7 22 -3 5 -7 4 -10 -3 -4 -13 -22 -6 -22 9 0 5 34 8 80 6 43 -2 77 0 74
4 -2 4 4 7 15 6 15 -1 17 -4 10 -14 -8 -9 -6 -11 10 -8 12 2 21 -1 21 -6 0 -6
6 -7 13 -2 6 4 22 6 34 5 14 -2 23 3 26 15 4 15 5 16 6 1 0 -9 11 -18 23 -20
26 -3 38 -38 14 -38 -9 0 -15 6 -13 13 2 14 -61 18 -80 4 -6 -4 -14 -4 -17 1
-3 5 -16 7 -30 5 -13 -3 -27 0 -30 6 -11 17 -106 10 -106 -8 0 -14 63 -31 76
-20 17 14 56 8 62 -10 3 -10 -2 -11 -19 -6 -18 5 -20 4 -9 -4 25 -17 3 -24
-34 -10 -30 11 -40 10 -73 -5 -42 -18 -111 -15 -125 6 -6 10 -8 10 -8 1 0 -18
-25 -16 -40 2 -11 13 -14 13 -27 0 -8 -9 -19 -13 -24 -9 -5 3 -9 2 -8 -3 4
-25 -4 -24 -16 2 -10 22 -14 25 -14 11 -1 -15 -4 -16 -16 -6 -12 10 -15 10
-15 -4 0 -9 -7 -16 -15 -16 -8 0 -15 5 -15 12 0 6 -7 4 -18 -6 -18 -15 -20
-15 -36 3 -13 14 -14 20 -4 23 7 3 -49 4 -125 4 -75 0 -137 -3 -137 -8 0 -4
12 -9 28 -9 17 -1 20 -3 9 -6 -9 -2 -15 -9 -12 -14 4 -5 1 -9 -4 -9 -6 0 -11
5 -11 10 0 6 -9 10 -19 10 -11 0 -22 4 -25 9 -11 18 -138 -2 -157 -25 -9 -11
-6 -14 17 -14 22 0 25 -3 15 -9 -10 -6 -23 -5 -35 1 -12 6 -22 11 -23 10 -2
-1 -6 -2 -10 -1 -5 0 2 4 15 9 28 12 30 34 2 25 -11 -4 -20 -2 -20 4 0 6 5 11
11 11 6 0 17 7 25 15 14 13 13 15 -11 15 -46 0 -17 17 32 19 118 5 147 13 98
25 -16 4 -33 2 -41 -5 -8 -6 -26 -9 -41 -6 -18 3 -47 -4 -81 -19 -36 -16 -62
-22 -80 -18 -26 6 -26 6 -7 -9 11 -9 26 -17 33 -17 8 0 12 -6 9 -12 -2 -9 -28
-13 -83 -13 -43 0 -83 -3 -89 -6 -5 -3 -28 -5 -49 -4 -29 1 -40 7 -42 19 -2
13 2 16 14 11 38 -14 72 -17 72 -6 0 8 17 10 56 6 42 -4 55 -2 52 7 -5 15 -85
20 -108 8 -9 -5 -22 -5 -31 0 -18 10 -152 22 -234 21 -71 -2 -65 15 10 24 68
9 69 15 2 15 -31 0 -59 -5 -62 -11 -4 -6 -17 -14 -29 -19 l-21 -9 22 0 c12 -1
24 -5 27 -10 3 -5 25 -7 48 -4 29 4 39 3 34 -5 -4 -7 -12 -12 -18 -12 -6 0
-19 -7 -28 -15 -16 -14 -20 -14 -48 10 -31 26 -48 33 -37 15 3 -5 1 -10 -4
-10 -6 0 -11 -10 -11 -21 0 -21 -1 -21 -34 5 -19 14 -41 26 -48 26 -9 0 -9 -3
2 -10 8 -5 10 -10 5 -10 -6 0 -16 5 -23 12 -9 9 -12 9 -12 -1 0 -9 -11 -12
-35 -9 -19 2 -35 0 -35 -4 0 -4 -27 -6 -60 -3 -37 2 -58 0 -55 -5 4 -6 1 -10
-5 -10 -16 0 -30 43 -16 52 8 6 8 8 -1 8 -6 0 -18 -6 -26 -14 -8 -8 -25 -12
-43 -9 -28 4 -28 4 -9 -12 11 -8 25 -13 32 -11 7 3 13 1 13 -4 0 -5 8 -11 18
-13 10 -3 6 -5 -10 -6 -16 0 -28 -5 -28 -11 0 -5 -5 -10 -11 -10 -6 0 -9 6 -6
13 3 8 -3 13 -14 13 -11 0 -19 -6 -19 -13 0 -11 -5 -11 -20 -3 -26 14 -26 30
1 30 11 0 18 4 14 10 -3 5 -12 7 -20 4 -9 -4 -18 3 -24 18 -15 39 -33 48 -147
69 -60 10 -119 22 -132 25 -18 4 -23 1 -20 -13 1 -10 -1 -23 -5 -29 -4 -7 1
-22 11 -35 10 -13 29 -45 42 -71 20 -39 30 -48 52 -48 44 0 181 21 199 31 11
5 19 5 21 0 2 -5 23 -11 47 -13 25 -2 46 -9 48 -15 3 -8 -7 -9 -35 -2 -29 6
-47 5 -68 -6 -76 -37 -677 -70 -834 -46 -41 7 -133 26 -205 43 -71 16 -177 41
-234 55 -57 13 -104 23 -105 21 -1 -2 -8 -15 -15 -29 l-13 -26 -78 19 c-76 20
-79 21 -82 52 -2 23 -8 32 -25 34 -19 3 -23 -2 -24 -25 -1 -20 -3 -23 -6 -8
-6 25 -31 45 -55 45 -24 0 -23 -27 2 -35 22 -7 27 -25 8 -25 -7 0 -24 3 -36 7
-20 5 -23 11 -20 35 6 41 -4 42 -42 3 -40 -42 -49 -44 -42 -9 3 15 8 21 12 15
4 -8 12 -5 24 8 17 18 16 19 -26 34 -34 11 -43 18 -41 36 3 21 1 21 -126 19
-74 -2 -127 -7 -123 -12 3 -5 -9 -6 -28 -3 -18 4 -44 7 -59 8 -59 2 46 18 159
24 207 11 220 13 220 41 0 19 -5 24 -26 24 -14 0 -23 4 -19 10 8 13 65 13 65
-1 0 -6 8 -8 18 -5 9 3 24 1 32 -4 11 -7 7 -10 -17 -10 -27 0 -33 -4 -33 -21
0 -15 5 -19 19 -14 19 6 68 7 110 3 19 -2 29 5 45 31 11 19 14 31 7 27 -18
-12 -134 14 -148 33 -11 14 -14 14 -22 2 -6 -10 -36 -16 -90 -19 l-81 -5 0
-28 c0 -24 -4 -29 -25 -29 -14 0 -25 5 -25 10 0 6 -7 10 -15 10 -8 0 -15 -4
-15 -10 0 -5 -7 -10 -15 -10 -8 0 -15 7 -15 15 0 8 7 15 15 15 25 0 17 15 -9
18 -20 1 -25 -4 -28 -26 -3 -24 -7 -27 -43 -27 -32 0 -42 5 -50 23 -8 19 -18
22 -70 23 -33 1 -73 5 -90 9 l-30 7 35 13 35 14 -29 7 c-16 5 -104 3 -195 -3
-202 -15 -240 -15 -268 -5 -17 6 -23 5 -23 -6 0 -9 6 -18 13 -20 28 -12 -29
-6 -87 9 -138 35 -140 35 -126 44 8 5 -3 6 -27 3 -38 -5 -42 -3 -57 25 -9 17
-16 38 -16 47 0 8 -5 15 -11 15 -6 0 -9 -9 -6 -20 4 -16 0 -20 -21 -21 -15 -1
-31 0 -37 1 -5 2 -18 3 -27 4 -12 0 -18 8 -18 23 0 19 -7 23 -47 28 -27 3 -69
9 -94 14 -49 8 -88 -7 -74 -28 8 -15 3 -14 -89 9 -43 11 -80 20 -83 20 -2 0
-2 4 1 8 3 5 -41 20 -99 33 -57 13 -98 27 -92 31 7 4 9 8 5 8 -4 0 -3 11 2 25
14 36 -6 31 -22 -5 -13 -31 -32 -37 -58 -19 -12 8 -9 9 13 5 22 -5 27 -3 27
14 0 16 -5 19 -22 16 -13 -3 -45 -7 -71 -10 -43 -4 -49 -3 -57 17 -7 18 -8 16
-7 -13z"/>
<path d="M1222 3114 c3 -17 27 -27 156 -63 79 -23 111 -44 55 -37 -16 2 -22 1
-15 -1 20 -7 14 -22 -8 -16 -11 3 -20 11 -20 18 0 18 -32 28 -42 13 -6 -10 -8
-8 -8 5 0 9 -4 17 -10 17 -5 0 -6 -8 -3 -17 6 -15 4 -16 -9 -6 -8 7 -18 10
-21 6 -4 -3 -7 2 -7 13 0 15 -2 16 -9 5 -5 -8 -18 -12 -31 -8 -13 3 -20 1 -17
-6 2 -7 52 -28 111 -47 59 -19 111 -41 115 -49 9 -14 500 -175 509 -167 12 13
-10 34 -43 40 -24 5 -39 14 -45 29 -7 17 -9 18 -9 5 -1 -25 -21 -23 -21 2 0
11 -4 20 -10 20 -5 0 -7 -7 -4 -15 7 -18 4 -18 -31 -5 -18 7 -25 15 -21 25 3
8 1 15 -4 15 -5 0 -10 -8 -13 -17 -3 -15 -6 -14 -15 7 -8 18 -11 20 -11 8 -1
-26 -21 -22 -22 5 -1 18 -2 18 -6 4 -3 -10 -10 -17 -16 -14 -7 2 -62 20 -122
41 -72 23 -115 43 -123 56 -11 17 -10 20 7 20 11 0 128 -32 261 -71 133 -39
243 -69 246 -66 3 2 2 16 -2 31 -6 27 -29 35 -37 14 -4 -9 -6 -8 -6 3 -1 11
-33 25 -117 48 -64 18 -122 30 -130 27 -10 -4 -12 -2 -8 6 5 7 0 9 -14 6 -12
-4 -22 -3 -22 2 0 12 -119 42 -138 35 -9 -3 -13 -3 -10 1 12 11 -62 44 -157
70 -107 28 -107 28 -103 8z"/>
<path d="M870 3001 c0 -9 51 -30 223 -92 62 -22 85 -34 75 -40 -10 -8 -9 -12
6 -24 11 -8 30 -15 42 -15 13 0 25 -4 29 -9 3 -5 22 -15 43 -21 20 -7 56 -20
79 -31 47 -21 99 -25 105 -8 2 6 104 -26 251 -78 224 -80 276 -103 232 -103
-8 0 -15 -7 -15 -16 0 -8 -5 -12 -11 -9 -6 4 -8 13 -5 21 3 8 1 14 -3 14 -5 0
-11 -4 -13 -10 -2 -6 -25 -4 -60 6 -44 13 -58 21 -58 35 0 11 -4 19 -10 19 -5
0 -7 -6 -4 -14 3 -8 -51 7 -147 41 -138 49 -179 58 -153 34 5 -5 106 -46 224
-90 118 -45 225 -86 238 -91 21 -9 23 -8 17 11 -6 17 -4 21 8 16 8 -3 35 -11
58 -18 24 -7 72 -25 105 -41 34 -15 70 -28 79 -28 10 0 47 -14 83 -31 41 -19
76 -29 93 -27 16 3 26 1 23 -4 -3 -4 3 -8 12 -8 14 0 15 -3 6 -12 -7 -7 -12
-17 -12 -22 0 -6 4 -5 9 3 7 11 19 10 70 -8 34 -11 69 -21 79 -21 10 0 26 -6
35 -13 16 -11 16 -14 2 -35 -9 -12 -23 -22 -31 -22 -8 0 -14 -7 -14 -15 0 -18
2 -18 -48 -1 -37 13 -42 13 -58 -5 -16 -18 -16 -19 11 -19 20 0 26 -4 21 -15
-5 -14 5 -20 27 -16 11 2 32 -20 40 -43 6 -14 10 -16 21 -7 15 12 30 54 16 46
-4 -2 -7 6 -7 19 0 17 4 23 13 19 8 -3 14 1 14 11 0 23 13 20 40 -9 13 -14 18
-25 12 -25 -20 0 -45 -48 -38 -75 7 -27 26 -34 26 -10 0 27 20 16 21 -12 1
-17 3 -21 6 -10 3 13 11 15 31 11 15 -4 35 -13 46 -20 10 -7 25 -10 33 -7 13
5 13 3 3 -17 -9 -16 -9 -21 0 -15 20 13 28 48 14 63 -8 7 -14 24 -14 38 0 13
-4 24 -10 24 -5 0 -10 -4 -10 -10 0 -5 -4 -10 -10 -10 -5 0 -10 9 -10 20 0 11
-4 20 -10 20 -5 0 -10 -7 -10 -15 0 -18 -5 -19 -33 -4 -18 10 -24 8 -45 -17
-19 -23 -23 -25 -20 -9 2 10 17 29 35 41 l32 21 -24 11 c-25 11 -59 65 -48 75
3 4 22 -1 42 -9 39 -17 54 -21 116 -34 25 -5 45 -4 53 2 8 7 12 7 12 -1 0 -6
-5 -11 -10 -11 -6 0 -9 -3 -8 -7 3 -13 -13 -53 -21 -53 -5 0 -6 -11 -3 -25 2
-14 9 -25 14 -25 6 0 8 9 5 20 -3 11 -1 20 4 20 5 0 9 -11 9 -25 0 -14 4 -25
9 -25 13 0 22 43 10 51 -6 3 -9 15 -7 26 3 20 3 20 48 0 25 -11 52 -21 60 -23
120 -25 123 -26 108 -59 -6 -14 -17 -25 -25 -25 -7 0 -13 -5 -13 -10 0 -14 30
-25 39 -14 3 5 17 9 31 9 14 0 30 4 37 8 7 5 16 6 21 3 5 -3 10 6 10 19 0 28
-13 33 -22 10 -3 -8 -13 -15 -21 -15 -9 0 -13 5 -10 10 3 6 -1 10 -9 10 -9 0
-16 4 -16 10 0 5 24 13 53 17 49 6 50 7 25 17 -16 5 -28 16 -28 23 0 11 7 10
36 -2 21 -8 42 -21 48 -28 6 -8 38 -24 70 -36 33 -12 64 -28 70 -36 8 -11 767
-294 883 -329 17 -6 25 -1 37 22 9 18 11 33 5 43 -6 10 -9 10 -9 2 0 -21 -28
-15 -44 9 -9 12 -16 17 -16 10 0 -13 -58 -6 -75 9 -5 5 -17 9 -26 9 -9 0 -30
7 -45 15 -16 8 -39 15 -51 15 -13 0 -23 4 -23 9 0 6 -21 13 -46 17 -27 4 -44
11 -41 18 3 7 -9 12 -30 13 -38 2 -53 10 -38 21 16 11 11 46 -6 50 -13 2 -15
-3 -11 -23 4 -24 2 -26 -24 -22 -16 2 -40 8 -54 14 -14 6 -34 14 -45 18 -11 3
-15 9 -10 13 14 10 12 45 -3 50 -9 3 -11 -3 -6 -22 4 -19 2 -26 -8 -26 -17 0
-116 34 -125 43 -3 4 -18 7 -33 7 -14 0 -30 4 -36 10 -5 5 -18 11 -29 12 -17
3 -27 11 -24 21 8 28 7 47 -4 47 -8 0 -13 -10 -13 -22 1 -18 -4 -22 -19 -20
-11 2 -24 10 -28 18 -4 8 -16 14 -25 14 -10 0 -22 4 -28 9 -5 5 -20 11 -34 13
-17 2 -26 10 -28 25 -2 12 -11 24 -20 28 -14 5 -15 4 -4 -6 16 -17 15 -29 -3
-29 -8 0 -15 6 -15 14 0 7 -10 16 -21 19 -14 4 -20 11 -16 21 4 10 -1 20 -12
26 -16 8 -18 7 -14 -10 3 -11 0 -20 -6 -20 -5 0 -8 -7 -5 -15 4 -8 2 -15 -4
-15 -14 0 -25 32 -14 39 17 11 8 56 -12 59 -11 3 -16 0 -12 -7 4 -6 2 -11 -3
-11 -6 0 -11 6 -11 14 0 17 -33 31 -38 17 -5 -16 -22 -13 -22 3 0 21 -28 28
-33 8 -4 -14 -6 -13 -12 6 -4 13 -15 22 -27 22 -12 0 -16 -4 -12 -11 4 -7 2
-10 -5 -8 -7 3 -12 8 -11 13 2 13 -30 30 -38 21 -4 -4 -1 -10 6 -12 6 -3 12
-9 12 -15 0 -6 -9 -3 -20 7 -11 10 -17 21 -15 25 3 4 -3 11 -12 15 -10 3 -19
2 -21 -4 -2 -5 -13 0 -24 11 -21 21 -22 21 -28 3 -6 -17 -7 -17 -12 3 -4 12
-14 22 -23 22 -9 0 -13 -5 -9 -11 4 -7 2 -10 -5 -8 -7 3 -12 8 -11 13 2 9 -19
26 -33 26 -4 0 -6 -5 -5 -11 2 -6 -2 -13 -9 -16 -7 -3 -10 3 -6 15 3 13 -2 21
-15 24 -16 4 -19 2 -15 -11 3 -9 -4 -5 -16 9 -18 21 -22 23 -31 10 -8 -13 -10
-12 -10 4 0 14 -5 17 -22 13 -14 -4 -26 0 -35 11 -11 15 -14 15 -23 2 -8 -13
-10 -13 -10 3 0 9 -7 17 -15 17 -8 0 -15 -5 -15 -11 0 -5 -5 -7 -10 -4 -6 4
-8 10 -5 15 3 4 -9 13 -27 19 -40 14 -51 14 -42 -1 4 -7 -3 -3 -15 10 -12 12
-24 22 -27 22 -3 0 -3 -10 1 -22 5 -19 3 -18 -10 5 -9 15 -20 27 -26 27 -6 0
-7 -4 -4 -10 3 -5 2 -10 -3 -10 -6 0 -12 7 -16 15 -3 8 -10 15 -16 15 -6 0 -8
-6 -5 -12 4 -7 0 -5 -8 5 -9 11 -22 15 -33 11 -13 -4 -15 -3 -6 3 9 7 2 13
-25 21 -29 9 -39 9 -45 -1 -5 -8 -8 -6 -8 7 0 14 -5 17 -22 13 -14 -4 -26 0
-34 11 -12 15 -13 14 -14 -9 0 -24 -5 -27 -39 -31 -29 -2 -42 1 -50 14 -6 10
-20 18 -31 18 -14 0 -20 7 -21 23 -1 16 -2 18 -6 5 -5 -21 -4 -21 -38 -8 -18
7 -25 15 -21 25 3 8 1 15 -4 15 -6 0 -10 -4 -10 -10 0 -5 -4 -10 -10 -10 -5 0
-10 7 -10 15 0 8 -5 15 -11 15 -5 0 -7 -4 -4 -10 3 -5 1 -10 -4 -10 -6 0 -11
7 -11 15 0 8 -5 15 -11 15 -5 0 -7 -4 -4 -10 10 -16 -2 -13 -161 42 -139 47
-152 54 -150 75 0 13 1 23 1 23 0 0 114 -38 253 -84 178 -60 252 -80 252 -71
0 8 -5 17 -11 20 -6 4 -8 13 -5 21 3 8 1 14 -4 14 -6 0 -10 -4 -10 -10 0 -5
-4 -10 -10 -10 -5 0 -10 7 -10 15 0 17 -16 21 -22 5 -1 -5 -69 12 -150 37
-126 40 -148 50 -149 67 -1 17 -2 18 -6 4 -5 -22 1 -22 -66 1 -38 13 -57 16
-59 9 -3 -8 -31 -3 -83 15 -43 14 -82 24 -87 21 -4 -3 -17 0 -29 7 -19 10 -21
9 -17 -8 4 -16 1 -19 -26 -15 -17 2 -46 11 -65 19 -19 9 -76 31 -128 49 -52
19 -99 36 -104 40 -18 11 -59 14 -59 5z"/>
<path d="M4455 2967 c-93 -12 -95 -12 -95 -42 0 -20 6 -27 29 -31 20 -4 28
-11 24 -20 -4 -11 -9 -12 -18 -4 -9 8 -14 6 -19 -5 -3 -9 0 -15 9 -15 7 0 16
-3 18 -7 3 -5 -17 -6 -44 -5 l-49 4 0 -46 c0 -26 -5 -46 -11 -46 -5 0 -9 10
-7 23 2 15 -1 21 -12 18 -8 -2 -34 -3 -57 -2 -23 1 -44 -2 -47 -7 -2 -4 -26
-6 -53 -3 -46 6 -48 8 -51 39 -2 22 3 41 14 53 20 22 12 38 -11 19 -9 -8 -15
-29 -15 -56 0 -26 -5 -44 -11 -44 -6 0 -8 7 -5 16 5 13 -1 15 -32 13 -21 -2
-43 0 -49 4 -6 4 -13 2 -15 -4 -3 -8 -25 -6 -76 6 -58 14 -75 15 -87 5 -15
-13 -21 -70 -7 -70 4 0 97 -21 207 -48 l200 -47 312 0 c171 0 314 3 318 7 8 8
-43 98 -56 98 -5 0 -9 7 -9 16 0 30 -34 75 -52 70 -11 -2 -18 1 -18 10 0 10
12 14 40 14 37 0 40 2 40 29 0 24 -5 29 -31 35 -17 3 -46 6 -65 6 -18 0 -45 5
-60 10 -39 15 -70 17 -149 7z"/>
<path d="M1971 2903 c0 -5 4 -17 9 -28 9 -19 9 -19 16 3 8 27 30 29 37 3 3
-14 27 -26 88 -44 71 -22 773 -225 949 -275 30 -9 58 -21 62 -28 4 -6 20 -15
35 -19 16 -3 35 -12 43 -19 8 -7 231 -78 495 -156 264 -79 486 -145 494 -148
11 -4 11 -1 2 16 -6 11 -24 23 -41 27 -28 6 -43 25 -20 25 6 0 14 10 19 23 9
23 -2 37 -29 36 -10 0 -11 -2 -2 -6 6 -2 12 -13 12 -24 0 -15 -7 -19 -30 -19
-17 0 -33 6 -36 13 -3 8 -18 14 -34 15 -41 1 -53 10 -46 38 4 14 2 24 -4 24
-5 0 -10 -11 -10 -25 0 -27 -7 -30 -42 -16 -13 5 -43 14 -68 21 -25 7 -78 23
-119 36 -40 13 -77 22 -81 19 -5 -3 -11 -1 -14 3 -3 5 -44 19 -90 32 -55 15
-83 27 -79 34 4 7 1 7 -7 -1 -8 -7 -20 -8 -34 -3 -11 4 -47 16 -78 25 -49 14
-58 20 -58 40 0 13 -7 25 -15 29 -11 4 -15 -1 -15 -19 0 -25 -14 -33 -25 -15
-3 6 -15 10 -26 10 -24 0 -45 19 -50 45 -3 12 -16 22 -34 26 -17 4 -95 26
-175 48 -80 23 -203 57 -275 77 -71 20 -159 44 -195 55 -36 10 -114 32 -175
48 -60 16 -152 41 -203 55 -93 26 -153 33 -151 19z"/>
<path d="M2117 2804 c3 -8 0 -14 -6 -14 -6 0 -11 4 -11 9 0 4 -13 8 -30 7 -20
-1 -30 -6 -30 -17 0 -11 55 -33 218 -83 119 -37 363 -113 542 -168 179 -56
328 -107 333 -114 4 -7 21 -15 37 -19 16 -4 33 -13 37 -20 5 -7 139 -54 298
-105 160 -50 386 -123 504 -161 118 -38 216 -68 218 -66 8 8 -17 57 -29 57
-28 0 -41 17 -29 38 8 16 7 21 -5 26 -25 10 -30 7 -31 -15 -1 -12 -3 -23 -5
-24 -4 -5 -106 30 -115 39 -3 3 -17 6 -29 6 -25 0 -74 20 -74 30 0 3 5 11 11
17 8 8 6 14 -8 22 -18 9 -20 7 -15 -14 4 -25 -11 -33 -33 -17 -14 10 -17 32
-4 32 5 0 7 5 4 10 -11 18 -35 11 -35 -10 0 -21 -19 -26 -48 -11 -9 5 -37 15
-62 21 -76 21 -100 32 -100 46 0 8 5 14 11 14 5 0 7 5 4 10 -11 18 -25 11 -25
-13 l0 -24 -60 20 c-34 11 -60 26 -60 33 0 8 6 14 13 14 8 0 7 4 -3 10 -23 15
-29 12 -23 -10 6 -24 -12 -27 -21 -3 -5 13 -9 14 -15 5 -6 -9 -25 -7 -84 12
-42 13 -90 27 -106 31 -39 8 -71 37 -71 64 0 11 -4 21 -9 21 -5 0 -16 3 -24 6
-12 4 -14 0 -10 -15 3 -11 9 -18 14 -15 5 3 9 0 9 -5 0 -19 -19 -12 -36 14 -8
13 -13 29 -9 35 6 10 -16 21 -67 34 -24 5 -28 3 -28 -14 0 -11 -5 -20 -11 -20
-7 0 -9 9 -5 23 5 21 1 25 -33 35 -51 16 -59 15 -64 -5 -4 -15 -5 -14 -6 3 -1
15 -12 24 -40 32 -49 15 -51 15 -51 -3 0 -8 -5 -15 -11 -15 -6 0 -8 8 -5 18 5
15 -2 21 -33 30 -49 15 -51 15 -51 -3 0 -17 -9 -19 -30 -5 -13 8 -12 10 3 10
23 0 22 16 -2 23 -15 3 -21 -1 -24 -17 l-4 -21 -2 21 c0 12 -8 25 -17 28 -26
10 -31 -4 -9 -21 17 -14 18 -15 2 -9 -10 3 -21 6 -23 6 -2 0 -4 9 -4 20 0 11
-7 20 -15 20 -8 0 -15 -7 -15 -15 0 -8 -5 -15 -11 -15 -6 0 -9 9 -6 19 3 14
-2 21 -18 25 -13 3 -30 9 -38 12 -10 3 -17 -1 -20 -13 -4 -14 -5 -14 -6 5 -1
15 -7 22 -22 22 -18 0 -19 -2 -9 -15 10 -12 10 -15 -4 -15 -9 0 -16 8 -16 19
0 14 -16 23 -72 40 -88 25 -89 26 -81 4 5 -12 -3 -8 -20 10 -27 26 -51 34 -60
20 -2 -5 -3 -3 -1 3 1 7 -15 16 -36 22 -31 8 -37 7 -33 -4z"/>
<path d="M2110 2720 c8 -5 11 -12 8 -15 -4 -4 -12 -3 -19 1 -7 4 -24 9 -37 10
-17 2 -22 -2 -20 -13 2 -12 151 -66 543 -196 297 -99 543 -186 548 -193 4 -7
21 -15 37 -19 16 -4 34 -13 38 -21 7 -13 166 -69 857 -304 110 -37 202 -66
204 -65 1 2 -4 18 -13 36 -9 18 -16 42 -16 54 0 21 -17 35 -41 35 -5 0 -9 -11
-9 -25 0 -17 -4 -23 -15 -19 -10 4 -13 14 -9 29 4 17 0 24 -15 28 -17 4 -21 0
-21 -19 0 -13 -1 -24 -2 -24 -2 0 -34 12 -73 26 -38 14 -77 27 -85 28 -49 10
-61 19 -56 41 4 16 1 25 -11 29 -9 4 -18 4 -21 1 -3 -3 0 -5 6 -5 7 0 12 -9
12 -20 0 -21 -24 -28 -35 -10 -3 6 -17 10 -30 10 -22 0 -68 16 -117 41 -10 5
-29 9 -42 9 -14 0 -28 5 -31 10 -3 6 -16 10 -29 10 -12 0 -26 4 -31 8 -6 5
-64 26 -130 46 -66 21 -128 42 -137 47 -10 5 -27 9 -38 9 -11 0 -23 6 -26 14
-3 8 -12 12 -20 9 -17 -6 -68 42 -60 56 4 6 -3 15 -14 21 -16 8 -20 8 -20 -4
0 -8 6 -17 13 -19 7 -3 6 -6 -5 -6 -17 -1 -34 32 -24 48 3 5 -15 16 -40 25
-45 15 -46 15 -41 -4 3 -11 1 -20 -4 -20 -5 0 -9 4 -9 10 0 5 -6 9 -12 7 -7
-1 -13 5 -13 13 0 17 -14 30 -32 30 -7 0 -10 -7 -7 -15 4 -8 1 -15 -5 -15 -10
0 -13 7 -10 26 1 7 -22 24 -33 24 -4 0 -9 -10 -11 -22 -4 -20 -4 -19 -6 5 0
15 -6 27 -12 27 -6 0 -8 -9 -4 -20 4 -11 2 -20 -4 -20 -6 0 -11 10 -12 23 0
21 -1 21 -9 2 -8 -19 -9 -19 -9 1 -1 12 -8 25 -17 28 -23 9 -24 8 -25 -16 0
-22 0 -22 -10 2 -11 28 -26 40 -51 40 -11 0 -15 -5 -12 -15 4 -8 1 -15 -5 -15
-6 0 -11 10 -12 23 0 21 -1 21 -9 2 -8 -19 -9 -19 -9 1 -1 30 -41 40 -42 11
-1 -20 -2 -20 -8 3 -8 30 -41 40 -42 13 -1 -13 -3 -11 -9 7 -7 21 -8 22 -10 5
l-1 -20 -9 20 c-5 11 -9 14 -9 8 -1 -7 -6 -13 -12 -13 -6 0 -9 6 -6 14 3 8 -1
17 -9 20 -23 9 -27 7 -20 -9 3 -8 1 -15 -4 -15 -6 0 -10 9 -10 20 0 24 -27 27
-32 3 -3 -15 -5 -15 -18 -1 -8 8 -21 13 -28 10 -6 -2 -12 1 -12 7 0 6 6 11 13
12 6 0 3 4 -8 9 -30 13 -38 12 -31 -5 3 -8 1 -15 -4 -15 -6 0 -10 9 -10 20 0
11 -7 20 -15 20 -8 0 -15 -7 -15 -15 0 -9 -6 -12 -15 -9 -8 4 -15 12 -15 20 0
7 -9 18 -19 24 -26 13 -29 13 -34 -7 -4 -14 -5 -12 -6 5 -1 24 -31 32 -31 7 0
-9 -6 -12 -15 -9 -8 4 -15 14 -15 23 0 14 -2 14 -10 1 -8 -13 -10 -12 -10 3 0
9 -4 17 -10 17 -5 0 -10 -4 -10 -10 0 -5 -5 -10 -11 -10 -6 0 -9 6 -6 14 6 14
-12 26 -36 26 -7 0 -6 -4 3 -10z"/>
<path d="M4314 2168 c3 -17 6 -34 6 -39 0 -5 13 -9 29 -9 23 0 30 6 39 33 l10
32 1 -32 c1 -31 3 -33 35 -33 32 0 35 3 39 33 l4 32 1 -32 c2 -30 5 -33 36
-33 30 0 34 4 40 31 3 17 6 35 6 40 0 5 -57 9 -126 8 l-126 0 6 -31z"/>
<path d="M3205 2110 c-3 -5 -4 -14 0 -19 3 -5 1 -12 -4 -16 -6 -3 -8 -12 -5
-20 8 -20 -22 -30 -41 -15 -9 7 -18 10 -22 7 -6 -7 57 -37 77 -37 6 0 8 -5 5
-10 -4 -6 -10 -8 -15 -5 -5 3 -11 1 -15 -5 -4 -6 10 -10 35 -10 23 0 39 -4 36
-9 -3 -5 -19 -7 -35 -5 -17 2 -33 -1 -36 -6 -4 -7 -13 -6 -26 0 -11 6 -24 8
-30 4 -6 -3 -16 2 -23 12 -9 11 -19 15 -31 10 -10 -4 -14 -10 -9 -14 19 -17
124 -53 134 -47 6 4 10 -5 11 -22 l0 -28 10 24 c5 14 7 31 5 38 -3 7 -1 13 4
13 6 0 10 -5 10 -10 0 -6 13 -1 30 11 34 26 56 17 24 -9 -28 -22 -44 -55 -43
-84 1 -18 2 -19 6 -5 3 10 10 16 17 14 16 -6 64 80 70 126 4 32 0 40 -37 71
-23 20 -48 36 -54 36 -7 0 -13 5 -13 10 0 6 -6 10 -14 10 -8 0 -18 -4 -21 -10z"/>
<path d="M4357 1853 c-3 -4 -8 -33 -12 -63 -4 -30 -8 -57 -9 -59 -1 -5 112
-41 130 -41 6 0 14 19 18 43 4 23 9 52 12 64 5 19 -1 24 -53 39 -32 9 -63 19
-69 21 -7 2 -14 1 -17 -4z"/>
<path d="M5763 1578 c-25 -8 -33 -17 -33 -34 0 -18 -6 -24 -21 -24 -11 0 -67
-10 -122 -21 -232 -48 -227 -48 -240 -28 -14 19 -75 40 -64 22 4 -6 -8 -14
-28 -17 -19 -4 -35 -12 -35 -18 0 -5 6 -8 14 -5 8 3 16 2 18 -3 2 -6 17 -11
33 -12 17 -1 35 -4 40 -7 6 -3 42 -7 82 -7 49 -1 81 -7 97 -18 27 -17 62 -21
70 -7 3 4 -7 6 -22 3 -15 -3 -24 -1 -20 3 14 15 56 14 62 -1 3 -8 12 -14 21
-14 8 0 15 -5 15 -11 0 -8 13 -9 39 -5 23 3 42 2 46 -4 3 -5 16 -10 28 -9 21
0 21 1 2 9 -11 5 -15 9 -10 10 6 0 2 5 -8 11 -9 6 -15 14 -12 19 3 4 -6 11
-20 14 -14 4 -25 13 -25 20 0 11 16 13 68 10 59 -2 61 -2 17 4 -98 14 -98 42
1 42 53 0 64 3 64 16 0 9 -8 23 -17 30 -16 12 -16 13 -2 14 9 0 19 7 23 15 6
17 -13 18 -61 3z"/>
<path d="M6017 1573 c-4 -3 -7 -18 -7 -32 -1 -24 -2 -25 -14 -8 -12 15 -20 16
-56 8 -52 -12 -60 -19 -37 -35 28 -21 20 -29 -24 -22 -27 4 -38 3 -34 -4 3 -6
-4 -14 -17 -19 -18 -8 -19 -10 -5 -10 10 -1 27 4 38 10 18 9 19 8 13 -18 -4
-15 -11 -33 -16 -39 -5 -8 -3 -14 7 -17 8 -4 14 -1 12 6 -1 7 7 12 18 12 11 0
31 10 45 23 14 12 32 22 42 22 10 0 19 11 23 30 7 31 4 31 71 -3 17 -9 34 -13
38 -9 4 4 6 1 4 -7 -1 -7 3 -16 11 -19 8 -3 11 0 7 7 -5 8 1 7 21 -1 26 -12
26 -13 5 -16 -25 -4 -28 -14 -8 -31 21 -18 88 -3 84 18 -2 9 -11 15 -20 15
-14 -1 -15 2 -5 18 16 24 -3 37 -48 33 -26 -3 -32 0 -28 13 2 11 -5 21 -19 28
-13 6 -39 20 -59 32 -20 12 -39 19 -42 15z"/>
</g>
</svg>
